999
dxflib 2.0.4.8
  0
SECTION
  2
HEADER
  9
$ACADVER
  1
AC1015
  9
$HANDSEED
  5
FFFF
  9
$CLAYER
  8
0
  9
$DIMASZ
 40
2.5
  9
$EXTMIN
 10
-30.8000000000000007
 20
-50.8000057220460022
 30
0.0
  9
$DIMGAP
 40
0.625
  9
$MEASUREMENT
 70
1
  9
$LIMMIN
 10
-30.8000000000000007
 20
-50.8000057220460022
  9
$INSBASE
 10
0.0
 20
0.0
 30
0.0
  9
$DIMEXO
 40
0.625
  9
$INSUNITS
 70
4
  9
$EXTMAX
 10
400.7771568298339844
 20
83.0515899658199999
 30
0.0
  9
$LIMMAX
 10
400.7771568298339844
 20
83.0515899658199999
  9
$DIMTXT
 40
2.5
  9
$DIMLFAC
 40
1.0
  9
$DIMSTYLE
  2
Standard
  9
$PLIMMIN
 10
0.0
 20
0.0
  9
$PLIMMAX
 10
210.0
 20
297.0
  9
$DIMEXE
 40
1.25
  0
ENDSEC
  0
SECTION
  2
TABLES
  0
TABLE
  2
VPORT
  5
8
100
AcDbSymbolTable
 70
1
  0
VPORT
  5
30
100
AcDbSymbolTableRecord
100
AcDbViewportTableRecord
  2
*Active
 70
0
 10
0.0
 20
0.0
 11
1.0
 21
1.0
 12
286.3055555555554861
 22
148.5
 13
0.0
 23
0.0
 14
10.0
 24
10.0
 15
10.0
 25
10.0
 16
0.0
 26
0.0
 36
1.0
 17
0.0
 27
0.0
 37
0.0
 40
297.0
 41
1.92798353909465
 42
50.0
 43
0.0
 44
0.0
 50
0.0
 51
0.0
 71
0
 72
100
 73
1
 74
3
 75
1
 76
1
 77
0
 78
0
281
0
 65
1
110
0.0
120
0.0
130
0.0
111
1.0
121
0.0
131
0.0
112
0.0
122
1.0
132
0.0
 79
0
146
0.0
  0
ENDTAB
  0
TABLE
  2
LTYPE
  5
5
100
AcDbSymbolTable
 70
21
  0
LTYPE
  5
14
100
AcDbSymbolTableRecord
100
AcDbLinetypeTableRecord
  2
ByBlock
 70
0
  3

 72
65
 73
0
 40
0.0
  0
LTYPE
  5
15
100
AcDbSymbolTableRecord
100
AcDbLinetypeTableRecord
  2
ByLayer
 70
0
  3

 72
65
 73
0
 40
0.0
  0
LTYPE
  5
16
100
AcDbSymbolTableRecord
100
AcDbLinetypeTableRecord
  2
CONTINUOUS
 70
0
  3
Solid line
 72
65
 73
0
 40
0.0
  0
LTYPE
  5
31
100
AcDbSymbolTableRecord
100
AcDbLinetypeTableRecord
  2
DOT
 70
0
  3
Dot . . . . . . . . . . . . . . . . . . . . . .
 72
65
 73
2
 40
6.3499999999999996
 49
0.0
 74
0
 49
-6.3499999999999996
 74
0
  0
LTYPE
  5
32
100
AcDbSymbolTableRecord
100
AcDbLinetypeTableRecord
  2
DOT2
 70
0
  3
Dot (.5x) .....................................
 72
65
 73
2
 40
3.1749999999999998
 49
0.0
 74
0
 49
-3.1749999999999998
 74
0
  0
LTYPE
  5
33
100
AcDbSymbolTableRecord
100
AcDbLinetypeTableRecord
  2
DOTX2
 70
0
  3
Dot (2x) .  .  .  .  .  .  .  .  .  .  .  .  .
 72
65
 73
2
 40
12.6999999999999993
 49
0.0
 74
0
 49
-12.6999999999999993
 74
0
  0
LTYPE
  5
34
100
AcDbSymbolTableRecord
100
AcDbLinetypeTableRecord
  2
DASHED
 70
0
  3
Dashed __ __ __ __ __ __ __ __ __ __ __ __ __ _
 72
65
 73
2
 40
19.0500000000000007
 49
12.6999999999999993
 74
0
 49
-6.3499999999999996
 74
0
  0
LTYPE
  5
35
100
AcDbSymbolTableRecord
100
AcDbLinetypeTableRecord
  2
DASHED2
 70
0
  3
Dashed (.5x) _ _ _ _ _ _ _ _ _ _ _ _ _ _ _ _ _
 72
65
 73
2
 40
9.5250000000000004
 49
6.3499999999999996
 74
0
 49
-3.1749999999999998
 74
0
  0
LTYPE
  5
36
100
AcDbSymbolTableRecord
100
AcDbLinetypeTableRecord
  2
DASHEDX2
 70
0
  3
Dashed (2x) ____  ____  ____  ____  ____  ___
 72
65
 73
2
 40
38.1000000000000014
 49
25.3999999999999986
 74
0
 49
-12.6999999999999993
 74
0
  0
LTYPE
  5
37
100
AcDbSymbolTableRecord
100
AcDbLinetypeTableRecord
  2
DASHDOT
 70
0
  3
Dash dot __ . __ . __ . __ . __ . __ . __ . __
 72
65
 73
4
 40
25.3999999999999986
 49
12.6999999999999993
 74
0
 49
-6.3499999999999996
 74
0
 49
0.0
 74
0
 49
-6.3499999999999996
 74
0
  0
LTYPE
  5
38
100
AcDbSymbolTableRecord
100
AcDbLinetypeTableRecord
  2
DASHDOT2
 70
0
  3
Dash dot (.5x) _._._._._._._._._._._._._._._.
 72
65
 73
4
 40
12.6999999999999993
 49
6.3499999999999996
 74
0
 49
-3.1749999999999998
 74
0
 49
0.0
 74
0
 49
-3.1749999999999998
 74
0
  0
LTYPE
  5
39
100
AcDbSymbolTableRecord
100
AcDbLinetypeTableRecord
  2
DASHDOTX2
 70
0
  3
Dash dot (2x) ____  .  ____  .  ____  .  ___
 72
65
 73
4
 40
50.7999999999999972
 49
25.3999999999999986
 74
0
 49
-12.6999999999999993
 74
0
 49
0.0
 74
0
 49
-12.6999999999999993
 74
0
  0
LTYPE
  5
3A
100
AcDbSymbolTableRecord
100
AcDbLinetypeTableRecord
  2
DIVIDE
 70
0
  3
Divide ____ . . ____ . . ____ . . ____ . . ____
 72
65
 73
6
 40
31.75
 49
12.6999999999999993
 74
0
 49
-6.3499999999999996
 74
0
 49
0.0
 74
0
 49
-6.3499999999999996
 74
0
 49
0.0
 74
0
 49
-6.3499999999999996
 74
0
  0
LTYPE
  5
3B
100
AcDbSymbolTableRecord
100
AcDbLinetypeTableRecord
  2
DIVIDE2
 70
0
  3
Divide (.5x) __..__..__..__..__..__..__..__.._
 72
65
 73
6
 40
15.875
 49
6.3499999999999996
 74
0
 49
-3.1749999999999998
 74
0
 49
0.0
 74
0
 49
-3.1749999999999998
 74
0
 49
0.0
 74
0
 49
-3.1749999999999998
 74
0
  0
LTYPE
  5
3C
100
AcDbSymbolTableRecord
100
AcDbLinetypeTableRecord
  2
DIVIDEX2
 70
0
  3
Divide (2x) ________  .  .  ________  .  .  _
 72
65
 73
6
 40
63.5
 49
25.3999999999999986
 74
0
 49
-12.6999999999999993
 74
0
 49
0.0
 74
0
 49
-12.6999999999999993
 74
0
 49
0.0
 74
0
 49
-12.6999999999999993
 74
0
  0
LTYPE
  5
3D
100
AcDbSymbolTableRecord
100
AcDbLinetypeTableRecord
  2
CENTER
 70
0
  3
Center ____ _ ____ _ ____ _ ____ _ ____ _ ____
 72
65
 73
4
 40
50.7999999999999972
 49
31.75
 74
0
 49
-6.3499999999999996
 74
0
 49
6.3499999999999996
 74
0
 49
-6.3499999999999996
 74
0
  0
LTYPE
  5
3E
100
AcDbSymbolTableRecord
100
AcDbLinetypeTableRecord
  2
CENTER2
 70
0
  3
Center (.5x) ___ _ ___ _ ___ _ ___ _ ___ _ ___
 72
65
 73
4
 40
28.5749999999999993
 49
19.0500000000000007
 74
0
 49
-3.1749999999999998
 74
0
 49
3.1749999999999998
 74
0
 49
-3.1749999999999998
 74
0
  0
LTYPE
  5
3F
100
AcDbSymbolTableRecord
100
AcDbLinetypeTableRecord
  2
CENTERX2
 70
0
  3
Center (2x) ________  __  ________  __  _____
 72
65
 73
4
 40
101.5999999999999943
 49
63.5
 74
0
 49
-12.6999999999999993
 74
0
 49
12.6999999999999993
 74
0
 49
-12.6999999999999993
 74
0
  0
LTYPE
  5
40
100
AcDbSymbolTableRecord
100
AcDbLinetypeTableRecord
  2
BORDER
 70
0
  3
Border __ __ . __ __ . __ __ . __ __ . __ __ .
 72
65
 73
6
 40
44.4500000000000028
 49
12.6999999999999993
 74
0
 49
-6.3499999999999996
 74
0
 49
12.6999999999999993
 74
0
 49
-6.3499999999999996
 74
0
 49
0.0
 74
0
 49
-6.3499999999999996
 74
0
  0
LTYPE
  5
41
100
AcDbSymbolTableRecord
100
AcDbLinetypeTableRecord
  2
BORDER2
 70
0
  3
Border (.5x) __.__.__.__.__.__.__.__.__.__.__.
 72
65
 73
6
 40
22.2250000000000014
 49
6.3499999999999996
 74
0
 49
-3.1749999999999998
 74
0
 49
6.3499999999999996
 74
0
 49
-3.1749999999999998
 74
0
 49
0.0
 74
0
 49
-3.1749999999999998
 74
0
  0
LTYPE
  5
42
100
AcDbSymbolTableRecord
100
AcDbLinetypeTableRecord
  2
BORDERX2
 70
0
  3
Border (2x) ____  ____  .  ____  ____  .  ___
 72
65
 73
6
 40
88.9000000000000057
 49
25.3999999999999986
 74
0
 49
-12.6999999999999993
 74
0
 49
25.3999999999999986
 74
0
 49
-12.6999999999999993
 74
0
 49
0.0
 74
0
 49
-12.6999999999999993
 74
0
  0
ENDTAB
  0
TABLE
  2
LAYER
  5
2
100
AcDbSymbolTable
 70
1
  0
LAYER
  5
10
100
AcDbSymbolTableRecord
100
AcDbLayerTableRecord
  2
0
 70
0
 62
7
  6
CONTINUOUS
390
F
  0
ENDTAB
  0
TABLE
  2
STYLE
  5
3
100
AcDbSymbolTable
 70
1
  0
STYLE
  5
11
100
AcDbSymbolTableRecord
100
AcDbTextStyleTableRecord
  2
Standard
 70
0
 40
0.0
 41
0.75
 50
0.0
 71
0
 42
2.5
  3
txt
  4

  0
ENDTAB
  0
TABLE
  2
VIEW
  5
6
100
AcDbSymbolTable
 70
0
  0
ENDTAB
  0
TABLE
  2
UCS
  5
7
100
AcDbSymbolTable
 70
0
  0
ENDTAB
  0
TABLE
  2
APPID
  5
9
100
AcDbSymbolTable
 70
1
  0
APPID
  5
12
100
AcDbSymbolTableRecord
100
AcDbRegAppTableRecord
  2
ACAD
 70
0
  0
ENDTAB
  0
TABLE
  2
DIMSTYLE
  5
A
100
AcDbSymbolTable
 70
1
100
AcDbDimStyleTable
 71
0
  0
DIMSTYLE
105
27
100
AcDbSymbolTableRecord
100
AcDbDimStyleTableRecord
  2
Standard
 41
2.5
 42
0.625
 43
3.75
 44
1.25
 70
0
 73
0
 74
0
 77
1
 78
8
140
2.5
141
2.5
143
0.03937007874016
147
0.625
171
3
172
1
271
2
272
2
274
3
278
44
283
0
284
8
340
11
  0
ENDTAB
  0
TABLE
  2
BLOCK_RECORD
  5
1
100
AcDbSymbolTable
 70
1
  0
BLOCK_RECORD
  5
1F
100
AcDbSymbolTableRecord
100
AcDbBlockTableRecord
  2
*Model_Space
340
22
  0
BLOCK_RECORD
  5
1B
100
AcDbSymbolTableRecord
100
AcDbBlockTableRecord
  2
*Paper_Space
340
1E
  0
BLOCK_RECORD
  5
23
100
AcDbSymbolTableRecord
100
AcDbBlockTableRecord
  2
*Paper_Space0
340
26
  0
ENDTAB
  0
ENDSEC
  0
SECTION
  2
BLOCKS
  0
BLOCK
  5
20
100
AcDbEntity
  8
0
100
AcDbBlockBegin
  2
*Model_Space
 70
0
 10
0.0
 20
0.0
 30
0.0
  3
*Model_Space
  1

  0
ENDBLK
  5
21
100
AcDbEntity
  8
0
100
AcDbBlockEnd
  0
BLOCK
  5
1C
100
AcDbEntity
 67
1
  8
0
100
AcDbBlockBegin
  2
*Paper_Space
 70
0
 10
0.0
 20
0.0
 30
0.0
  3
*Paper_Space
  1

  0
ENDBLK
  5
1D
100
AcDbEntity
 67
1
  8
0
100
AcDbBlockEnd
  0
BLOCK
  5
24
100
AcDbEntity
  8
0
100
AcDbBlockBegin
  2
*Paper_Space0
 70
0
 10
0.0
 20
0.0
 30
0.0
  3
*Paper_Space0
  1

  0
ENDBLK
  5
25
100
AcDbEntity
  8
0
100
AcDbBlockEnd
  0
ENDSEC
  0
SECTION
  2
ENTITIES
  0
CIRCLE
  5
43
100
AcDbEntity
100
AcDbCircle
  8
0
 62
256
370
-1
  6
ByLayer
 10
25.0
 20
40.4999923706049998
 30
0.0
 40
2.0
  0
CIRCLE
  5
44
100
AcDbEntity
100
AcDbCircle
  8
0
 62
256
370
-1
  6
ByLayer
 10
73.5
 20
40.4999923706049998
 30
0.0
 40
2.0
  0
CIRCLE
  5
45
100
AcDbEntity
100
AcDbCircle
  8
0
 62
256
370
-1
  6
ByLayer
 10
66.3470840454099999
 20
29.0629940032960015
 30
0.0
 40
1.0
  0
CIRCLE
  5
46
100
AcDbEntity
100
AcDbCircle
  8
0
 62
256
370
-1
  6
ByLayer
 10
27.4850807189939985
 20
29.0629940032960015
 30
0.0
 40
1.0
  0
CIRCLE
  5
47
100
AcDbEntity
100
AcDbCircle
  8
0
 62
256
370
-1
  6
ByLayer
 10
95.7771606445309942
 20
39.8520431518549998
 30
0.0
 40
2.0
  0
CIRCLE
  5
48
100
AcDbEntity
100
AcDbCircle
  8
0
 62
256
370
-1
  6
ByLayer
 10
144.2771606445309942
 20
39.8520431518549998
 30
0.0
 40
2.0
  0
CIRCLE
  5
49
100
AcDbEntity
100
AcDbCircle
  8
0
 62
256
370
-1
  6
ByLayer
 10
63.5435829162600001
 20
78.0515899658199999
 30
0.0
 40
2.0
  0
CIRCLE
  5
4A
100
AcDbEntity
100
AcDbCircle
  8
0
 62
256
370
-1
  6
ByLayer
 10
27.5435810089110014
 20
78.0515899658199999
 30
0.0
 40
1.0
  0
CIRCLE
  5
4B
100
AcDbEntity
100
AcDbCircle
  8
0
 62
256
370
-1
  6
ByLayer
 10
114.2578430175779971
 20
44.1728248596189985
 30
0.0
 40
1.0
  0
CIRCLE
  5
4C
100
AcDbEntity
100
AcDbCircle
  8
0
 62
256
370
-1
  6
ByLayer
 10
123.4998397827150001
 20
45.7026290893549998
 30
0.0
 40
1.0
  0
LINE
  5
4D
100
AcDbEntity
100
AcDbLine
  8
0
 62
256
370
-1
  6
ByLayer
 10
30.9160804748539988
 20
24.4999942779539985
 30
0.0
 11
62.9160804748539988
 21
24.4999942779539985
 31
0.0
  0
LINE
  5
4E
100
AcDbEntity
100
AcDbLine
  8
0
 62
256
370
-1
  6
ByLayer
 10
62.9160804748539988
 20
24.4999942779539985
 30
0.0
 11
62.9160804748539988
 21
41.4999942779540021
 31
0.0
  0
LINE
  5
4F
100
AcDbEntity
100
AcDbLine
  8
0
 62
256
370
-1
  6
ByLayer
 10
62.9160804748539988
 20
41.4999923706049998
 30
0.0
 11
30.9160804748539988
 21
41.4999923706049998
 31
0.0
  0
LINE
  5
50
100
AcDbEntity
100
AcDbLine
  8
0
 62
256
370
-1
  6
ByLayer
 10
30.9160804748539988
 20
41.4999923706049998
 30
0.0
 11
30.9160804748539988
 21
24.4999923706049998
 31
0.0
  0
LINE
  5
51
100
AcDbEntity
100
AcDbLine
  8
0
 62
256
370
-1
  6
ByLayer
 10
30.0
 20
19.9999942779539985
 30
0.0
 11
63.8500000000000014
 21
19.9999942779539985
 31
0.0
  0
ARC
  5
52
100
AcDbEntity
  8
0
 62
256
370
-1
  6
ByLayer
100
AcDbCircle
 10
63.850002288817997
 20
25.9999942779539985
 30
0.0
 40
6.0
100
AcDbArc
 50
270.0
 51
360.0
  0
LINE
  5
53
100
AcDbEntity
100
AcDbLine
  8
0
 62
256
370
-1
  6
ByLayer
 10
69.8499984741209943
 20
25.9999942779539985
 30
0.0
 11
69.8499984741209943
 21
29.7539484935740006
 31
0.0
  0
ARC
  5
54
100
AcDbEntity
  8
0
 62
256
370
-1
  6
ByLayer
100
AcDbCircle
 10
75.8499984741209943
 20
29.75394821167
 30
0.0
 40
6.0
100
AcDbArc
 50
102.3355380509409969
 51
180.0
  0
ARC
  5
55
100
AcDbEntity
  8
0
 62
256
370
-1
  6
ByLayer
100
AcDbCircle
 10
73.5
 20
40.4999923706049998
 30
0.0
 40
5.0
100
AcDbArc
 50
282.3355380509410111
 51
450.0
  0
LINE
  5
56
100
AcDbEntity
100
AcDbLine
  8
0
 62
256
370
-1
  6
ByLayer
 10
73.5
 20
45.4999923706049998
 30
0.0
 11
25.0
 21
45.4999923706049998
 31
0.0
  0
ARC
  5
57
100
AcDbEntity
  8
0
 62
256
370
-1
  6
ByLayer
100
AcDbCircle
 10
25.0
 20
40.4999923706049998
 30
0.0
 40
5.0
100
AcDbArc
 50
90.0
 51
230.478803641358013
  0
ARC
  5
58
100
AcDbEntity
  8
0
 62
256
370
-1
  6
ByLayer
100
AcDbCircle
 10
18.0
 20
32.0147132873539988
 30
0.0
 40
6.0
100
AcDbArc
 50
0.0
 51
50.4788036413579988
  0
LINE
  5
59
100
AcDbEntity
100
AcDbLine
  8
0
 62
256
370
-1
  6
ByLayer
 10
24.0
 20
32.0147132873539988
 30
0.0
 11
24.0
 21
25.9999946615920017
 31
0.0
  0
ARC
  5
5A
100
AcDbEntity
  8
0
 62
256
370
-1
  6
ByLayer
100
AcDbCircle
 10
30.0
 20
25.9999942779539985
 30
0.0
 40
6.0
100
AcDbArc
 50
180.0
 51
270.0
  0
LINE
  5
5B
100
AcDbEntity
100
AcDbLine
  8
0
 62
256
370
-1
  6
ByLayer
 10
110.9108047485349999
 20
23.8520431518549998
 30
0.0
 11
131.6932389664769971
 21
23.8520431518549998
 31
0.0
  0
ARC
  5
5C
100
AcDbEntity
  8
0
 62
256
370
-1
  6
ByLayer
100
AcDbCircle
 10
131.6932373046880116
 20
25.8520431518549998
 30
0.0
 40
2.0
100
AcDbArc
 50
270.0
 51
360.0
  0
LINE
  5
5D
100
AcDbEntity
100
AcDbLine
  8
0
 62
256
370
-1
  6
ByLayer
 10
133.6932373046880116
 20
25.8520431518549998
 30
0.0
 11
133.6932373046880116
 21
26.8520726868410016
 31
0.0
  0
ARC
  5
5E
100
AcDbEntity
  8
0
 62
256
370
-1
  6
ByLayer
100
AcDbCircle
 10
141.6932373046880116
 20
26.8520736694339988
 30
0.0
 40
8.0
100
AcDbArc
 50
90.0
 51
180.0
  0
LINE
  5
5F
100
AcDbEntity
100
AcDbLine
  8
0
 62
256
370
-1
  6
ByLayer
 10
141.6932373046880116
 20
34.8520736694339988
 30
0.0
 11
144.2943432417679901
 21
34.8520736694339988
 31
0.0
  0
ARC
  5
60
100
AcDbEntity
  8
0
 62
256
370
-1
  6
ByLayer
100
AcDbCircle
 10
144.2771606445309942
 20
39.8520431518549998
 30
0.0
 40
5.0
100
AcDbArc
 50
270.196934234610012
 51
450.0
  0
LINE
  5
61
100
AcDbEntity
100
AcDbLine
  8
0
 62
256
370
-1
  6
ByLayer
 10
144.2771606445309942
 20
44.8520431518549998
 30
0.0
 11
136.152066254503012
 21
44.8520414622379988
 31
0.0
  0
ARC
  5
62
100
AcDbEntity
  8
0
 62
256
370
-1
  6
ByLayer
100
AcDbCircle
 10
131.6429748535159945
 20
49.84037399292
 30
0.0
 40
6.7242320541889997
100
AcDbArc
 50
211.7224154723799927
 51
312.111280379337984
  0
LINE
  5
63
100
AcDbEntity
100
AcDbLine
  8
0
 62
256
370
-1
  6
ByLayer
 10
125.9233093261720029
 20
46.304740905762003
 30
0.0
 11
124.9614518630949931
 21
47.9024625661960002
 31
0.0
  0
ARC
  5
64
100
AcDbEntity
  8
0
 62
256
370
-1
  6
ByLayer
100
AcDbCircle
 10
123.9701995849609943
 20
45.0709609985349999
 30
0.0
 40
3.0
100
AcDbArc
 50
70.7057505003430009
 51
99.3988034879750018
  0
LINE
  5
65
100
AcDbEntity
100
AcDbLine
  8
0
 62
256
370
-1
  6
ByLayer
 10
123.480278015137003
 20
48.0306854248050001
 30
0.0
 11
113.8822368724210037
 21
46.4419459465400024
 31
0.0
  0
ARC
  5
66
100
AcDbEntity
  8
0
 62
256
370
-1
  6
ByLayer
100
AcDbCircle
 10
114.3721542358400001
 20
43.482219696045
 30
0.0
 40
3.0
100
AcDbArc
 50
99.3988034879750018
 51
159.1268711894599903
  0
LINE
  5
67
100
AcDbEntity
100
AcDbLine
  8
0
 62
256
370
-1
  6
ByLayer
 10
111.569038391112997
 20
44.551120758057003
 30
0.0
 11
110.4897599732770033
 21
41.7207876770759967
 31
0.0
  0
ARC
  5
68
100
AcDbEntity
  8
0
 62
256
370
-1
  6
ByLayer
100
AcDbCircle
 10
108.6210174560550001
 20
42.4333877563479973
 30
0.0
 40
2.0
100
AcDbArc
 50
249.1268711894599903
 51
339.1268711894600187
  0
LINE
  5
69
100
AcDbEntity
100
AcDbLine
  8
0
 62
256
370
-1
  6
ByLayer
 10
107.9084167480470029
 20
40.564643859862997
 30
0.0
 11
96.6650183563010046
 21
44.8520393289280008
 31
0.0
  0
LINE
  5
6A
100
AcDbEntity
100
AcDbLine
  8
0
 62
256
370
-1
  6
ByLayer
 10
96.6650238037109943
 20
44.8520393371579971
 30
0.0
 11
95.7771655522359993
 21
44.8520442143639997
 31
0.0
  0
ARC
  5
6B
100
AcDbEntity
  8
0
 62
256
370
-1
  6
ByLayer
100
AcDbCircle
 10
95.7771606445309942
 20
39.8520431518549998
 30
0.0
 40
5.0
100
AcDbArc
 50
90.0
 51
226.5622497636200023
  0
LINE
  5
6C
100
AcDbEntity
100
AcDbLine
  8
0
 62
256
370
-1
  6
ByLayer
 10
92.3393325805659941
 20
36.221435546875
 30
0.0
 11
94.3806993153010012
 21
34.262251068471997
 31
0.0
  0
LINE
  5
6D
100
AcDbEntity
100
AcDbLine
  8
0
 62
256
370
-1
  6
ByLayer
 10
94.3806991577150001
 20
34.26224899292
 30
0.0
 11
109.2472094852140003
 21
24.3555572674810001
 31
0.0
  0
ARC
  5
6E
100
AcDbEntity
  8
0
 62
256
370
-1
  6
ByLayer
100
AcDbCircle
 10
110.9108047485349999
 20
26.8520431518549998
 30
0.0
 40
3.0
100
AcDbArc
 50
236.3214475760599953
 51
270.0
  0
LINE
  5
6F
100
AcDbEntity
100
AcDbLine
  8
0
 62
256
370
-1
  6
ByLayer
 10
27.5445842742919993
 20
73.0515899658199999
 30
0.0
 11
63.8147338985369998
 21
73.058947679962003
 31
0.0
  0
ARC
  5
70
100
AcDbEntity
  8
0
 62
256
370
-1
  6
ByLayer
100
AcDbCircle
 10
63.5435829162600001
 20
78.0515899658199999
 30
0.0
 40
5.0
100
AcDbArc
 50
273.1087108389060063
 51
501.2622731286079443
  0
ARC
  5
71
100
AcDbEntity
  8
0
 62
256
370
-1
  6
ByLayer
100
AcDbCircle
 10
57.3034324646000002
 20
83.0576400756840059
 30
0.0
 40
3.0
100
AcDbArc
 50
270.0114991401620159
 51
321.2622731286069779
  0
LINE
  5
72
100
AcDbEntity
100
AcDbLine
  8
0
 62
256
370
-1
  6
ByLayer
 10
57.3040351867679973
 20
80.0576400756840059
 30
0.0
 11
33.7881151417929999
 21
80.0529204808619994
 31
0.0
  0
ARC
  5
73
100
AcDbEntity
  8
0
 62
256
370
-1
  6
ByLayer
100
AcDbCircle
 10
33.7875137329099999
 20
83.0529174804690058
 30
0.0
 40
3.0
100
AcDbArc
 50
218.6944056410960115
 51
270.0114991401620159
  0
ARC
  5
74
100
AcDbEntity
  8
0
 62
256
370
-1
  6
ByLayer
100
AcDbCircle
 10
27.5435810089110014
 20
78.0515899658199999
 30
0.0
 40
5.0
100
AcDbArc
 50
38.6944056410959973
 51
270.0114991401620159
  0
MTEXT
  5
75
100
AcDbEntity
100
AcDbMText
  8
0
 62
256
370
-1
  6
ByLayer
 10
81.1385803222659945
 20
9.9999942779540003
 30
0.0
 40
2.54
 41
100.0
 71
7
 72
2
  1
Top
  7
Standard
 50
0.0
 73
1
 44
1.0
  0
LINE
  5
76
100
AcDbEntity
100
AcDbLine
  8
0
 62
256
370
-1
  6
ByLayer
 10
0.0
 20
9.9999942779540003
 30
0.0
 11
0.0
 21
-0.000005722046
 31
0.0
  0
LINE
  5
77
100
AcDbEntity
100
AcDbLine
  8
0
 62
256
370
-1
  6
ByLayer
 10
0.0
 20
9.9999942779540003
 30
0.0
 11
10.0
 21
9.9999942779540003
 31
0.0
  0
LINE
  5
78
100
AcDbEntity
100
AcDbLine
  8
0
 62
256
370
-1
  6
ByLayer
 10
10.0
 20
-0.000005722046
 30
0.0
 11
10.0
 21
9.9999942779540003
 31
0.0
  0
LINE
  5
79
100
AcDbEntity
100
AcDbLine
  8
0
 62
256
370
-1
  6
ByLayer
 10
0.0
 20
-0.000005722046
 30
0.0
 11
10.0
 21
-0.000005722046
 31
0.0
  0
MTEXT
  5
7A
100
AcDbEntity
100
AcDbMText
  8
0
 62
256
370
-1
  6
ByLayer
 10
0.5
 20
7.9999942779540003
 30
0.0
 40
1.0
 41
100.0
 71
7
 72
2
  1
1\~cm\~x\~1\~cm
  7
Standard
 50
0.0
 73
1
 44
1.0
  0
MTEXT
  5
7B
100
AcDbEntity
100
AcDbMText
  8
0
 62
256
370
-1
  6
ByLayer
 10
3.0
 20
4.9999942779540003
 30
0.0
 40
1.0
 41
100.0
 71
7
 72
2
  1
scaling
  7
Standard
 50
0.0
 73
1
 44
1.0
  0
MTEXT
  5
7C
100
AcDbEntity
100
AcDbMText
  8
0
 62
256
370
-1
  6
ByLayer
 10
1.5
 20
1.9999942779540001
 30
0.0
 40
1.0
 41
100.0
 71
7
 72
2
  1
reference
  7
Standard
 50
0.0
 73
1
 44
1.0
  0
LINE
  5
7D
100
AcDbEntity
100
AcDbLine
  8
0
 62
256
370
-1
  6
ByLayer
 10
186.1162694382416589
 20
21.1030799618612761
 30
0.0
 11
186.1162694382416589
 21
19.515579961861274
 31
0.0
  0
LINE
  5
7E
100
AcDbEntity
100
AcDbLine
  8
0
 62
256
370
-1
  6
ByLayer
 10
160.6162713455896665
 20
19.515579961861274
 30
0.0
 11
160.6162713455896665
 21
21.1030799618612761
 31
0.0
  0
LINE
  5
7F
100
AcDbEntity
100
AcDbLine
  8
0
 62
256
370
-1
  6
ByLayer
 10
160.6162713455896665
 20
21.1030799618612761
 30
0.0
 11
186.1162694382416589
 21
21.1030799618612761
 31
0.0
  0
LINE
  5
80
100
AcDbEntity
100
AcDbLine
  8
0
 62
256
370
-1
  6
ByLayer
 10
186.1162694382416589
 20
19.515579961861274
 30
0.0
 11
160.6162713455896665
 21
19.515579961861274
 31
0.0
  0
LINE
  5
81
100
AcDbEntity
100
AcDbLine
  8
0
 62
256
370
-1
  6
DASHED
 10
181.6162713455896665
 20
21.1030799618612761
 30
0.0
 11
181.6162713455896665
 21
19.515579961861274
 31
0.0
  0
LINE
  5
82
100
AcDbEntity
100
AcDbLine
  8
0
 62
256
370
-1
  6
DASHED
 10
164.6162694382416589
 20
19.515579961861274
 30
0.0
 11
164.6162694382416589
 21
21.1030799618612761
 31
0.0
  0
LINE
  5
83
100
AcDbEntity
100
AcDbLine
  8
0
 62
256
370
-1
  6
DASHED
 10
164.6162694382416589
 20
21.1030799618612761
 30
0.0
 11
181.6162713455896665
 21
21.1030799618612761
 31
0.0
  0
LINE
  5
84
100
AcDbEntity
100
AcDbLine
  8
0
 62
256
370
-1
  6
DASHED
 10
181.6162713455896665
 20
19.515579961861274
 30
0.0
 11
164.6162694382416589
 21
19.515579961861274
 31
0.0
  0
LINE
  5
85
100
AcDbEntity
100
AcDbLine
  8
0
 62
256
370
-1
  6
DASHED
 10
167.6162713455896665
 20
21.1030799618612761
 30
0.0
 11
167.6162713455896665
 21
19.515579961861274
 31
0.0
  0
LINE
  5
86
100
AcDbEntity
100
AcDbLine
  8
0
 62
256
370
-1
  6
DASHED
 10
163.6162713455896665
 20
19.515579961861274
 30
0.0
 11
163.6162713455896665
 21
21.1030799618612761
 31
0.0
  0
LINE
  5
87
100
AcDbEntity
100
AcDbLine
  8
0
 62
256
370
-1
  6
DASHED
 10
163.6162713455896665
 20
21.1030799618612761
 30
0.0
 11
167.6162713455896665
 21
21.1030799618612761
 31
0.0
  0
LINE
  5
88
100
AcDbEntity
100
AcDbLine
  8
0
 62
256
370
-1
  6
DASHED
 10
167.6162713455896665
 20
19.515579961861274
 30
0.0
 11
163.6162713455896665
 21
19.515579961861274
 31
0.0
  0
LINE
  5
89
100
AcDbEntity
100
AcDbLine
  8
0
 62
256
370
-1
  6
DASHED
 10
167.6162713455896665
 20
21.1030799618612761
 30
0.0
 11
167.6162713455896665
 21
19.515579961861274
 31
0.0
  0
LINE
  5
8A
100
AcDbEntity
100
AcDbLine
  8
0
 62
256
370
-1
  6
DASHED
 10
163.6162713455896665
 20
19.515579961861274
 30
0.0
 11
163.6162713455896665
 21
21.1030799618612761
 31
0.0
  0
LINE
  5
8B
100
AcDbEntity
100
AcDbLine
  8
0
 62
256
370
-1
  6
DASHED
 10
163.6162713455896665
 20
21.1030799618612761
 30
0.0
 11
167.6162713455896665
 21
21.1030799618612761
 31
0.0
  0
LINE
  5
8C
100
AcDbEntity
100
AcDbLine
  8
0
 62
256
370
-1
  6
DASHED
 10
167.6162713455896665
 20
19.515579961861274
 30
0.0
 11
163.6162713455896665
 21
19.515579961861274
 31
0.0
  0
LINE
  5
8D
100
AcDbEntity
100
AcDbLine
  8
0
 62
256
370
-1
  6
DASHED
 10
178.0532697128996631
 20
21.1030799618612761
 30
0.0
 11
178.0532697128996631
 21
19.515579961861274
 31
0.0
  0
LINE
  5
8E
100
AcDbEntity
100
AcDbLine
  8
0
 62
256
370
-1
  6
DASHED
 10
176.0532697128996631
 20
19.515579961861274
 30
0.0
 11
176.0532697128996631
 21
21.1030799618612761
 31
0.0
  0
LINE
  5
8F
100
AcDbEntity
100
AcDbLine
  8
0
 62
256
370
-1
  6
DASHED
 10
176.0532697128996631
 20
21.1030799618612761
 30
0.0
 11
178.0532697128996631
 21
21.1030799618612761
 31
0.0
  0
LINE
  5
90
100
AcDbEntity
100
AcDbLine
  8
0
 62
256
370
-1
  6
DASHED
 10
178.0532697128996631
 20
19.515579961861274
 30
0.0
 11
176.0532697128996631
 21
19.515579961861274
 31
0.0
  0
LINE
  5
91
100
AcDbEntity
100
AcDbLine
  8
0
 62
256
370
-1
  6
DASHED
 10
178.0532697128996631
 20
21.1030799618612761
 30
0.0
 11
178.0532697128996631
 21
19.515579961861274
 31
0.0
  0
LINE
  5
92
100
AcDbEntity
100
AcDbLine
  8
0
 62
256
370
-1
  6
DASHED
 10
176.0532697128996631
 20
19.515579961861274
 30
0.0
 11
176.0532697128996631
 21
21.1030799618612761
 31
0.0
  0
LINE
  5
93
100
AcDbEntity
100
AcDbLine
  8
0
 62
256
370
-1
  6
DASHED
 10
176.0532697128996631
 20
21.1030799618612761
 30
0.0
 11
178.0532697128996631
 21
21.1030799618612761
 31
0.0
  0
LINE
  5
94
100
AcDbEntity
100
AcDbLine
  8
0
 62
256
370
-1
  6
DASHED
 10
178.0532697128996631
 20
19.515579961861274
 30
0.0
 11
176.0532697128996631
 21
19.515579961861274
 31
0.0
  0
MTEXT
  5
95
100
AcDbEntity
100
AcDbMText
  8
0
 62
256
370
-1
  6
ByLayer
 10
169.8662703919156627
 20
9.5155799618612757
 30
0.0
 40
2.54
 41
100.0
 71
7
 72
2
  1
Left
  7
Standard
 50
0.0
 73
1
 44
1.0
  0
LINE
  5
96
100
AcDbEntity
100
AcDbLine
  8
0
 62
256
370
-1
  6
ByLayer
 10
191.1162694382416589
 20
21.1030799618612761
 30
0.0
 11
191.1162694382416589
 21
19.515579961861274
 31
0.0
  0
LINE
  5
97
100
AcDbEntity
100
AcDbLine
  8
0
 62
256
370
-1
  6
ByLayer
 10
216.6162675308926566
 20
19.515579961861274
 30
0.0
 11
216.6162675308926566
 21
21.1030799618612761
 31
0.0
  0
LINE
  5
98
100
AcDbEntity
100
AcDbLine
  8
0
 62
256
370
-1
  6
ByLayer
 10
216.6162675308926566
 20
21.1030799618612761
 30
0.0
 11
191.1162694382416589
 21
21.1030799618612761
 31
0.0
  0
LINE
  5
99
100
AcDbEntity
100
AcDbLine
  8
0
 62
256
370
-1
  6
ByLayer
 10
191.1162694382416589
 20
19.515579961861274
 30
0.0
 11
216.6162675308926566
 21
19.515579961861274
 31
0.0
  0
LINE
  5
9A
100
AcDbEntity
100
AcDbLine
  8
0
 62
256
370
-1
  6
DASHED
 10
195.616267530892685
 20
21.1030799618612761
 30
0.0
 11
195.616267530892685
 21
19.515579961861274
 31
0.0
  0
LINE
  5
9B
100
AcDbEntity
100
AcDbLine
  8
0
 62
256
370
-1
  6
DASHED
 10
212.6162694382416873
 20
19.515579961861274
 30
0.0
 11
212.6162694382416873
 21
21.1030799618612761
 31
0.0
  0
LINE
  5
9C
100
AcDbEntity
100
AcDbLine
  8
0
 62
256
370
-1
  6
DASHED
 10
212.6162694382416873
 20
21.1030799618612761
 30
0.0
 11
195.616267530892685
 21
21.1030799618612761
 31
0.0
  0
LINE
  5
9D
100
AcDbEntity
100
AcDbLine
  8
0
 62
256
370
-1
  6
DASHED
 10
195.616267530892685
 20
19.515579961861274
 30
0.0
 11
212.6162694382416873
 21
19.515579961861274
 31
0.0
  0
LINE
  5
9E
100
AcDbEntity
100
AcDbLine
  8
0
 62
256
370
-1
  6
DASHED
 10
209.6162675308926566
 20
21.1030799618612761
 30
0.0
 11
209.6162675308926566
 21
19.515579961861274
 31
0.0
  0
LINE
  5
9F
100
AcDbEntity
100
AcDbLine
  8
0
 62
256
370
-1
  6
DASHED
 10
213.6162675308926566
 20
19.515579961861274
 30
0.0
 11
213.6162675308926566
 21
21.1030799618612761
 31
0.0
  0
LINE
  5
A0
100
AcDbEntity
100
AcDbLine
  8
0
 62
256
370
-1
  6
DASHED
 10
213.6162675308926566
 20
21.1030799618612761
 30
0.0
 11
209.6162675308926566
 21
21.1030799618612761
 31
0.0
  0
LINE
  5
A1
100
AcDbEntity
100
AcDbLine
  8
0
 62
256
370
-1
  6
DASHED
 10
209.6162675308926566
 20
19.515579961861274
 30
0.0
 11
213.6162675308926566
 21
19.515579961861274
 31
0.0
  0
LINE
  5
A2
100
AcDbEntity
100
AcDbLine
  8
0
 62
256
370
-1
  6
DASHED
 10
209.6162675308926566
 20
21.1030799618612761
 30
0.0
 11
209.6162675308926566
 21
19.515579961861274
 31
0.0
  0
LINE
  5
A3
100
AcDbEntity
100
AcDbLine
  8
0
 62
256
370
-1
  6
DASHED
 10
213.6162675308926566
 20
19.515579961861274
 30
0.0
 11
213.6162675308926566
 21
21.1030799618612761
 31
0.0
  0
LINE
  5
A4
100
AcDbEntity
100
AcDbLine
  8
0
 62
256
370
-1
  6
DASHED
 10
213.6162675308926566
 20
21.1030799618612761
 30
0.0
 11
209.6162675308926566
 21
21.1030799618612761
 31
0.0
  0
LINE
  5
A5
100
AcDbEntity
100
AcDbLine
  8
0
 62
256
370
-1
  6
DASHED
 10
209.6162675308926566
 20
19.515579961861274
 30
0.0
 11
213.6162675308926566
 21
19.515579961861274
 31
0.0
  0
LINE
  5
A6
100
AcDbEntity
100
AcDbLine
  8
0
 62
256
370
-1
  6
DASHED
 10
199.1792691635826884
 20
21.1030799618612761
 30
0.0
 11
199.1792691635826884
 21
19.515579961861274
 31
0.0
  0
LINE
  5
A7
100
AcDbEntity
100
AcDbLine
  8
0
 62
256
370
-1
  6
DASHED
 10
201.1792691635826884
 20
19.515579961861274
 30
0.0
 11
201.1792691635826884
 21
21.1030799618612761
 31
0.0
  0
LINE
  5
A8
100
AcDbEntity
100
AcDbLine
  8
0
 62
256
370
-1
  6
DASHED
 10
201.1792691635826884
 20
21.1030799618612761
 30
0.0
 11
199.1792691635826884
 21
21.1030799618612761
 31
0.0
  0
LINE
  5
A9
100
AcDbEntity
100
AcDbLine
  8
0
 62
256
370
-1
  6
DASHED
 10
199.1792691635826884
 20
19.515579961861274
 30
0.0
 11
201.1792691635826884
 21
19.515579961861274
 31
0.0
  0
LINE
  5
AA
100
AcDbEntity
100
AcDbLine
  8
0
 62
256
370
-1
  6
DASHED
 10
199.1792691635826884
 20
21.1030799618612761
 30
0.0
 11
199.1792691635826884
 21
19.515579961861274
 31
0.0
  0
LINE
  5
AB
100
AcDbEntity
100
AcDbLine
  8
0
 62
256
370
-1
  6
DASHED
 10
201.1792691635826884
 20
19.515579961861274
 30
0.0
 11
201.1792691635826884
 21
21.1030799618612761
 31
0.0
  0
LINE
  5
AC
100
AcDbEntity
100
AcDbLine
  8
0
 62
256
370
-1
  6
DASHED
 10
201.1792691635826884
 20
21.1030799618612761
 30
0.0
 11
199.1792691635826884
 21
21.1030799618612761
 31
0.0
  0
LINE
  5
AD
100
AcDbEntity
100
AcDbLine
  8
0
 62
256
370
-1
  6
DASHED
 10
199.1792691635826884
 20
19.515579961861274
 30
0.0
 11
201.1792691635826884
 21
19.515579961861274
 31
0.0
  0
MTEXT
  5
AE
100
AcDbEntity
100
AcDbMText
  8
0
 62
256
370
-1
  6
ByLayer
 10
200.3662684845666888
 20
9.5155799618612757
 30
0.0
 40
2.54
 41
100.0
 71
7
 72
2
  1
Right
  7
Standard
 50
0.0
 73
1
 44
1.0
  0
LINE
  5
AF
100
AcDbEntity
100
AcDbLine
  8
0
 62
256
370
-1
  6
ByLayer
 10
221.6162675308926566
 20
21.1030799618612761
 30
0.0
 11
221.6162675308926566
 21
19.515579961861274
 31
0.0
  0
LINE
  5
B0
100
AcDbEntity
100
AcDbLine
  8
0
 62
256
370
-1
  6
ByLayer
 10
280.1162675308926282
 20
19.515579961861274
 30
0.0
 11
280.1162675308926282
 21
21.1030799618612761
 31
0.0
  0
LINE
  5
B1
100
AcDbEntity
100
AcDbLine
  8
0
 62
256
370
-1
  6
ByLayer
 10
280.1162675308926282
 20
21.1030799618612761
 30
0.0
 11
221.6162675308926566
 21
21.1030799618612761
 31
0.0
  0
LINE
  5
B2
100
AcDbEntity
100
AcDbLine
  8
0
 62
256
370
-1
  6
ByLayer
 10
221.6162675308926566
 20
19.515579961861274
 30
0.0
 11
280.1162675308926282
 21
19.515579961861274
 31
0.0
  0
LINE
  5
B3
100
AcDbEntity
100
AcDbLine
  8
0
 62
256
370
-1
  6
DASHED
 10
232.5323480057466838
 20
21.1030799618612761
 30
0.0
 11
232.5323480057466838
 21
19.515579961861274
 31
0.0
  0
LINE
  5
B4
100
AcDbEntity
100
AcDbLine
  8
0
 62
256
370
-1
  6
DASHED
 10
264.5323480057467123
 20
19.515579961861274
 30
0.0
 11
264.5323480057467123
 21
21.1030799618612761
 31
0.0
  0
LINE
  5
B5
100
AcDbEntity
100
AcDbLine
  8
0
 62
256
370
-1
  6
DASHED
 10
264.5323480057467123
 20
21.1030799618612761
 30
0.0
 11
232.5323480057466838
 21
21.1030799618612761
 31
0.0
  0
LINE
  5
B6
100
AcDbEntity
100
AcDbLine
  8
0
 62
256
370
-1
  6
DASHED
 10
232.5323480057466838
 20
19.515579961861274
 30
0.0
 11
264.5323480057467123
 21
19.515579961861274
 31
0.0
  0
LINE
  5
B7
100
AcDbEntity
100
AcDbLine
  8
0
 62
256
370
-1
  6
DASHED
 10
273.1162675308926282
 20
21.1030799618612761
 30
0.0
 11
273.1162675308926282
 21
19.515579961861274
 31
0.0
  0
LINE
  5
B8
100
AcDbEntity
100
AcDbLine
  8
0
 62
256
370
-1
  6
DASHED
 10
277.1162675308926282
 20
19.515579961861274
 30
0.0
 11
277.1162675308926282
 21
21.1030799618612761
 31
0.0
  0
LINE
  5
B9
100
AcDbEntity
100
AcDbLine
  8
0
 62
256
370
-1
  6
DASHED
 10
277.1162675308926282
 20
21.1030799618612761
 30
0.0
 11
273.1162675308926282
 21
21.1030799618612761
 31
0.0
  0
LINE
  5
BA
100
AcDbEntity
100
AcDbLine
  8
0
 62
256
370
-1
  6
DASHED
 10
273.1162675308926282
 20
19.515579961861274
 30
0.0
 11
277.1162675308926282
 21
19.515579961861274
 31
0.0
  0
LINE
  5
BB
100
AcDbEntity
100
AcDbLine
  8
0
 62
256
370
-1
  6
DASHED
 10
224.6162675308926566
 20
21.1030799618612761
 30
0.0
 11
224.6162675308926566
 21
19.515579961861274
 31
0.0
  0
LINE
  5
BC
100
AcDbEntity
100
AcDbLine
  8
0
 62
256
370
-1
  6
DASHED
 10
228.6162675308926566
 20
19.515579961861274
 30
0.0
 11
228.6162675308926566
 21
21.1030799618612761
 31
0.0
  0
LINE
  5
BD
100
AcDbEntity
100
AcDbLine
  8
0
 62
256
370
-1
  6
DASHED
 10
228.6162675308926566
 20
21.1030799618612761
 30
0.0
 11
224.6162675308926566
 21
21.1030799618612761
 31
0.0
  0
LINE
  5
BE
100
AcDbEntity
100
AcDbLine
  8
0
 62
256
370
-1
  6
DASHED
 10
224.6162675308926566
 20
19.515579961861274
 30
0.0
 11
228.6162675308926566
 21
19.515579961861274
 31
0.0
  0
LINE
  5
BF
100
AcDbEntity
100
AcDbLine
  8
0
 62
256
370
-1
  6
DASHED
 10
266.9633515763026708
 20
21.1030799618612761
 30
0.0
 11
266.9633515763026708
 21
19.515579961861274
 31
0.0
  0
LINE
  5
C0
100
AcDbEntity
100
AcDbLine
  8
0
 62
256
370
-1
  6
DASHED
 10
268.9633515763026708
 20
19.515579961861274
 30
0.0
 11
268.9633515763026708
 21
21.1030799618612761
 31
0.0
  0
LINE
  5
C1
100
AcDbEntity
100
AcDbLine
  8
0
 62
256
370
-1
  6
DASHED
 10
268.9633515763026708
 20
21.1030799618612761
 30
0.0
 11
266.9633515763026708
 21
21.1030799618612761
 31
0.0
  0
LINE
  5
C2
100
AcDbEntity
100
AcDbLine
  8
0
 62
256
370
-1
  6
DASHED
 10
266.9633515763026708
 20
19.515579961861274
 30
0.0
 11
268.9633515763026708
 21
19.515579961861274
 31
0.0
  0
LINE
  5
C3
100
AcDbEntity
100
AcDbLine
  8
0
 62
256
370
-1
  6
DASHED
 10
228.1013482498866836
 20
21.1030799618612761
 30
0.0
 11
228.1013482498866836
 21
19.515579961861274
 31
0.0
  0
LINE
  5
C4
100
AcDbEntity
100
AcDbLine
  8
0
 62
256
370
-1
  6
DASHED
 10
230.1013482498866836
 20
19.515579961861274
 30
0.0
 11
230.1013482498866836
 21
21.1030799618612761
 31
0.0
  0
LINE
  5
C5
100
AcDbEntity
100
AcDbLine
  8
0
 62
256
370
-1
  6
DASHED
 10
230.1013482498866836
 20
21.1030799618612761
 30
0.0
 11
228.1013482498866836
 21
21.1030799618612761
 31
0.0
  0
LINE
  5
C6
100
AcDbEntity
100
AcDbLine
  8
0
 62
256
370
-1
  6
DASHED
 10
228.1013482498866836
 20
19.515579961861274
 30
0.0
 11
230.1013482498866836
 21
19.515579961861274
 31
0.0
  0
MTEXT
  5
C7
100
AcDbEntity
100
AcDbMText
  8
0
 62
256
370
-1
  6
ByLayer
 10
247.3662675308926566
 20
9.5155799618612757
 30
0.0
 40
2.54
 41
100.0
 71
7
 72
2
  1
Front
  7
Standard
 50
0.0
 73
1
 44
1.0
  0
LINE
  5
C8
100
AcDbEntity
100
AcDbLine
  8
0
 62
256
370
-1
  6
ByLayer
 10
343.6162675308926282
 20
21.1030799618612761
 30
0.0
 11
343.6162675308926282
 21
19.515579961861274
 31
0.0
  0
LINE
  5
C9
100
AcDbEntity
100
AcDbLine
  8
0
 62
256
370
-1
  6
ByLayer
 10
285.1162675308926282
 20
19.515579961861274
 30
0.0
 11
285.1162675308926282
 21
21.1030799618612761
 31
0.0
  0
LINE
  5
CA
100
AcDbEntity
100
AcDbLine
  8
0
 62
256
370
-1
  6
ByLayer
 10
285.1162675308926282
 20
21.1030799618612761
 30
0.0
 11
343.6162675308926282
 21
21.1030799618612761
 31
0.0
  0
LINE
  5
CB
100
AcDbEntity
100
AcDbLine
  8
0
 62
256
370
-1
  6
ByLayer
 10
343.6162675308926282
 20
19.515579961861274
 30
0.0
 11
285.1162675308926282
 21
19.515579961861274
 31
0.0
  0
LINE
  5
CC
100
AcDbEntity
100
AcDbLine
  8
0
 62
256
370
-1
  6
DASHED
 10
332.7001870560386578
 20
21.1030799618612761
 30
0.0
 11
332.7001870560386578
 21
19.515579961861274
 31
0.0
  0
LINE
  5
CD
100
AcDbEntity
100
AcDbLine
  8
0
 62
256
370
-1
  6
DASHED
 10
300.7001870560386578
 20
19.515579961861274
 30
0.0
 11
300.7001870560386578
 21
21.1030799618612761
 31
0.0
  0
LINE
  5
CE
100
AcDbEntity
100
AcDbLine
  8
0
 62
256
370
-1
  6
DASHED
 10
300.7001870560386578
 20
21.1030799618612761
 30
0.0
 11
332.7001870560386578
 21
21.1030799618612761
 31
0.0
  0
LINE
  5
CF
100
AcDbEntity
100
AcDbLine
  8
0
 62
256
370
-1
  6
DASHED
 10
332.7001870560386578
 20
19.515579961861274
 30
0.0
 11
300.7001870560386578
 21
19.515579961861274
 31
0.0
  0
LINE
  5
D0
100
AcDbEntity
100
AcDbLine
  8
0
 62
256
370
-1
  6
DASHED
 10
292.1162675308926282
 20
21.1030799618612761
 30
0.0
 11
292.1162675308926282
 21
19.515579961861274
 31
0.0
  0
LINE
  5
D1
100
AcDbEntity
100
AcDbLine
  8
0
 62
256
370
-1
  6
DASHED
 10
288.1162675308926282
 20
19.515579961861274
 30
0.0
 11
288.1162675308926282
 21
21.1030799618612761
 31
0.0
  0
LINE
  5
D2
100
AcDbEntity
100
AcDbLine
  8
0
 62
256
370
-1
  6
DASHED
 10
288.1162675308926282
 20
21.1030799618612761
 30
0.0
 11
292.1162675308926282
 21
21.1030799618612761
 31
0.0
  0
LINE
  5
D3
100
AcDbEntity
100
AcDbLine
  8
0
 62
256
370
-1
  6
DASHED
 10
292.1162675308926282
 20
19.515579961861274
 30
0.0
 11
288.1162675308926282
 21
19.515579961861274
 31
0.0
  0
LINE
  5
D4
100
AcDbEntity
100
AcDbLine
  8
0
 62
256
370
-1
  6
DASHED
 10
340.6162675308926282
 20
21.1030799618612761
 30
0.0
 11
340.6162675308926282
 21
19.515579961861274
 31
0.0
  0
LINE
  5
D5
100
AcDbEntity
100
AcDbLine
  8
0
 62
256
370
-1
  6
DASHED
 10
336.6162675308926282
 20
19.515579961861274
 30
0.0
 11
336.6162675308926282
 21
21.1030799618612761
 31
0.0
  0
LINE
  5
D6
100
AcDbEntity
100
AcDbLine
  8
0
 62
256
370
-1
  6
DASHED
 10
336.6162675308926282
 20
21.1030799618612761
 30
0.0
 11
340.6162675308926282
 21
21.1030799618612761
 31
0.0
  0
LINE
  5
D7
100
AcDbEntity
100
AcDbLine
  8
0
 62
256
370
-1
  6
DASHED
 10
340.6162675308926282
 20
19.515579961861274
 30
0.0
 11
336.6162675308926282
 21
19.515579961861274
 31
0.0
  0
LINE
  5
D8
100
AcDbEntity
100
AcDbLine
  8
0
 62
256
370
-1
  6
DASHED
 10
298.2691834854826993
 20
21.1030799618612761
 30
0.0
 11
298.2691834854826993
 21
19.515579961861274
 31
0.0
  0
LINE
  5
D9
100
AcDbEntity
100
AcDbLine
  8
0
 62
256
370
-1
  6
DASHED
 10
296.2691834854826993
 20
19.515579961861274
 30
0.0
 11
296.2691834854826993
 21
21.1030799618612761
 31
0.0
  0
LINE
  5
DA
100
AcDbEntity
100
AcDbLine
  8
0
 62
256
370
-1
  6
DASHED
 10
296.2691834854826993
 20
21.1030799618612761
 30
0.0
 11
298.2691834854826993
 21
21.1030799618612761
 31
0.0
  0
LINE
  5
DB
100
AcDbEntity
100
AcDbLine
  8
0
 62
256
370
-1
  6
DASHED
 10
298.2691834854826993
 20
19.515579961861274
 30
0.0
 11
296.2691834854826993
 21
19.515579961861274
 31
0.0
  0
LINE
  5
DC
100
AcDbEntity
100
AcDbLine
  8
0
 62
256
370
-1
  6
DASHED
 10
337.131186811898715
 20
21.1030799618612761
 30
0.0
 11
337.131186811898715
 21
19.515579961861274
 31
0.0
  0
LINE
  5
DD
100
AcDbEntity
100
AcDbLine
  8
0
 62
256
370
-1
  6
DASHED
 10
335.131186811898715
 20
19.515579961861274
 30
0.0
 11
335.131186811898715
 21
21.1030799618612761
 31
0.0
  0
LINE
  5
DE
100
AcDbEntity
100
AcDbLine
  8
0
 62
256
370
-1
  6
DASHED
 10
335.131186811898715
 20
21.1030799618612761
 30
0.0
 11
337.131186811898715
 21
21.1030799618612761
 31
0.0
  0
LINE
  5
DF
100
AcDbEntity
100
AcDbLine
  8
0
 62
256
370
-1
  6
DASHED
 10
337.131186811898715
 20
19.515579961861274
 30
0.0
 11
335.131186811898715
 21
19.515579961861274
 31
0.0
  0
MTEXT
  5
E0
100
AcDbEntity
100
AcDbMText
  8
0
 62
256
370
-1
  6
ByLayer
 10
310.8662675308926282
 20
9.5155799618612757
 30
0.0
 40
2.54
 41
100.0
 71
7
 72
2
  1
Back
  7
Standard
 50
0.0
 73
1
 44
1.0
  0
MTEXT
  5
E1
100
AcDbEntity
100
AcDbMText
  8
0
 62
256
370
-1
  6
ByLayer
 10
242.162690325938371
 20
-2.2583925244400938
 30
0.0
 40
2.5
 41
100.0
 71
1
 72
2
  1
Creative\~Commons\~Attribution-ShareAlike\~3.0\~Unported\~License.
  7
normallatin1
 50
0.0
 73
0
 44
1.0
  0
MTEXT
  5
E2
100
AcDbEntity
100
AcDbMText
  8
0
 62
256
370
-1
  6
ByLayer
 10
242.6915723624537122
 20
-18.1655368534770645
 30
0.0
 40
2.5
 41
100.0
 71
1
 72
2
  1
Document\~Number:\~http://www.diyshift.com\~\~\~\~\~\~\~\~\~\~\~Rev\~1.0
  7
normallatin1
 50
0.0
 73
0
 44
1.0
  0
MTEXT
  5
E3
100
AcDbEntity
100
AcDbMText
  8
0
 62
256
370
-1
  6
ByLayer
 10
243.6604009946391614
 20
-26.4005802270533358
 30
0.0
 40
2.5
 41
100.0
 71
1
 72
2
  1
Date:\~6/2/2011\~
  7
normallatin1
 50
0.0
 73
0
 44
1.0
  0
MTEXT
  5
E4
100
AcDbEntity
100
AcDbMText
  8
0
 62
256
370
-1
  6
ByLayer
 10
332.5504279976535713
 20
-28.0960303333778612
 30
0.0
 40
2.5
 41
100.0
 71
1
 72
2
  1
Sheet:\~1/1
  7
normallatin1
 50
0.0
 73
0
 44
1.0
  0
LINE
  5
E5
100
AcDbEntity
100
AcDbLine
  8
0
 62
256
370
-1
  6
ByLayer
 10
239.7850864658973933
 20
0.242207158046358
 30
0.0
 11
353.622450747686969
 21
0.242207158046358
 31
0.0
  0
LINE
  5
E6
100
AcDbEntity
100
AcDbLine
  8
0
 62
256
370
-1
  6
ByLayer
 10
353.622450747686969
 20
0.242207158046358
 30
0.0
 11
353.622450747686969
 21
-33.6667949684441581
 31
0.0
  0
LINE
  5
E7
100
AcDbEntity
100
AcDbLine
  8
0
 62
256
370
-1
  6
ByLayer
 10
353.622450747686969
 20
-33.6667949684441581
 30
0.0
 11
239.7850864658973933
 21
-33.6667949684441581
 31
0.0
  0
LINE
  5
E8
100
AcDbEntity
100
AcDbLine
  8
0
 62
256
370
-1
  6
ByLayer
 10
239.7850864658973933
 20
-33.6667949684441581
 30
0.0
 11
239.7850864658973933
 21
0.242207158046358
 31
0.0
  0
LINE
  5
E9
100
AcDbEntity
100
AcDbLine
  8
0
 62
256
370
-1
  6
ByLayer
 10
239.7850864658973933
 20
-8.2350433735762714
 30
0.0
 11
353.6224504658973729
 21
-8.2350433735762714
 31
0.0
  0
LINE
  5
EA
100
AcDbEntity
100
AcDbLine
  8
0
 62
256
370
-1
  6
ByLayer
 10
239.7850864658973933
 20
-15.7434652730134559
 30
0.0
 11
353.6224504658973729
 21
-15.7434652730134559
 31
0.0
  0
LINE
  5
EB
100
AcDbEntity
100
AcDbLine
  8
0
 62
256
370
-1
  6
ByLayer
 10
239.7850864658973933
 20
-24.220715804636086
 30
0.0
 11
353.6224504658973729
 21
-24.220715804636086
 31
0.0
  0
MTEXT
  5
EC
100
AcDbEntity
100
AcDbMText
  8
0
 62
256
370
-1
  6
ByLayer
 10
242.4978066360169748
 20
-10.9477635436955296
 30
0.0
 40
2.5
 41
100.0
 71
1
 72
2
  1
Title:\~X5\~E-railleur\~kit\~for\~use\~with\~Hitec\~HS-225MG\~servo
  7
normallatin1
 50
0.0
 73
0
 44
1.0
  0
LINE
  5
ED
100
AcDbEntity
100
AcDbLine
  8
0
 62
256
370
-1
  6
ByLayer
 10
353.622450747686969
 20
-33.6667949684441581
 30
0.0
 11
-12.9352577691996089
 21
-33.6667949684441581
 31
0.0
  0
LINE
  5
EE
100
AcDbEntity
100
AcDbLine
  8
0
 62
256
370
-1
  6
ByLayer
 10
-12.9352577691996089
 20
-33.6667949684441581
 30
0.0
 11
-12.9352577691996089
 21
134.8962595930816235
 31
0.0
  0
LINE
  5
EF
100
AcDbEntity
100
AcDbLine
  8
0
 62
256
370
-1
  6
ByLayer
 10
-12.9352577691996089
 20
134.8962595930816235
 30
0.0
 11
353.622450747686969
 21
134.8962595930816235
 31
0.0
  0
LINE
  5
F0
100
AcDbEntity
100
AcDbLine
  8
0
 62
256
370
-1
  6
ByLayer
 10
353.622450747686969
 20
134.8962595930816235
 30
0.0
 11
353.622450747686969
 21
-33.6667949684441581
 31
0.0
  0
CIRCLE
  5
F1
100
AcDbEntity
100
AcDbCircle
  8
0
 62
256
370
-1
  6
ByLayer
 10
110.9054045265637711
 20
62.4080584698327101
 30
0.0
 40
1.0
  0
CIRCLE
  5
F2
100
AcDbEntity
100
AcDbCircle
  8
0
 62
256
370
-1
  6
ByLayer
 10
120.1474012917007741
 20
63.9378626995687114
 30
0.0
 40
1.0
  0
LINE
  5
F3
100
AcDbEntity
100
AcDbLine
  8
0
 62
256
370
-1
  6
ByLayer
 10
122.5708708351577769
 20
64.5399745159757146
 30
0.0
 11
121.6090133720807671
 21
66.1376961764097189
 31
0.0
  0
ARC
  5
F4
100
AcDbEntity
  8
0
 62
256
370
-1
  6
ByLayer
100
AcDbCircle
 10
120.6177610939467684
 20
63.3061946087487115
 30
0.0
 40
3.0
100
AcDbArc
 50
70.7057505003430009
 51
99.3988034879750018
  0
LINE
  5
F5
100
AcDbEntity
100
AcDbLine
  8
0
 62
256
370
-1
  6
ByLayer
 10
120.127839524122777
 20
66.2659190350187117
 30
0.0
 11
110.5297983814067777
 21
64.677179556753714
 31
0.0
  0
ARC
  5
F6
100
AcDbEntity
  8
0
 62
256
370
-1
  6
ByLayer
100
AcDbCircle
 10
111.0197157448257741
 20
61.7174533062587116
 30
0.0
 40
3.0
100
AcDbArc
 50
99.3988034879750018
 51
159.1268711894599903
  0
LINE
  5
F7
100
AcDbEntity
100
AcDbLine
  8
0
 62
256
370
-1
  6
ByLayer
 10
108.2165999000987711
 20
62.7863543682707146
 30
0.0
 11
107.1373214822627773
 21
59.9560212872897083
 31
0.0
  0
LINE
  5
F8
100
AcDbEntity
100
AcDbLine
  8
0
 62
256
370
-1
  6
ByLayer
 10
122.5708708351577769
 20
64.5399745159757146
 30
0.0
 11
123.1767172834770037
 21
61.3978791820217893
 31
0.0
  0
LINE
  5
F9
100
AcDbEntity
100
AcDbLine
  8
0
 62
256
370
-1
  6
ByLayer
 10
123.1767172834770037
 20
61.3978791820217893
 30
0.0
 11
107.1129495140338719
 21
58.9216462057044694
 31
0.0
  0
LINE
  5
FA
100
AcDbEntity
100
AcDbLine
  8
0
 62
256
370
-1
  6
ByLayer
 10
107.1129495140338719
 20
58.9216462057044694
 30
0.0
 11
107.1373214822627773
 21
59.9560212872897083
 31
0.0
  0
MTEXT
  5
FB
100
AcDbEntity
100
AcDbMText
  8
0
 62
256
370
-1
  6
ByLayer
 10
33.60624317893285
 20
77.8090495223940763
 30
0.0
 40
2.5
 41
100.0
 71
1
 72
2
  1
Servo\~linkage
  7
normallatin1
 50
0.0
 73
0
 44
1.0
  0
MTEXT
  5
FC
100
AcDbEntity
100
AcDbMText
  8
0
 62
256
370
-1
  6
ByLayer
 10
36.633832654512382
 20
34.5145200216067067
 30
0.0
 40
2.5
 41
100.0
 71
1
 72
2
  1
Outer\~plate
  7
normallatin1
 50
0.0
 73
0
 44
1.0
  0
MTEXT
  5
FD
100
AcDbEntity
100
AcDbMText
  8
0
 62
256
370
-1
  6
ByLayer
 10
110.5070158586530624
 20
34.2117610740487521
 30
0.0
 40
2.5
 41
100.0
 71
1
 72
2
  1
Inner\~plate
  7
normallatin1
 50
0.0
 73
0
 44
1.0
  0
MTEXT
  5
FE
100
AcDbEntity
100
AcDbMText
  8
0
 62
256
370
-1
  6
ByLayer
 10
130.4891063974779968
 20
65.3959326725179722
 30
0.0
 40
2.5
 41
100.0
 71
1
 72
2
  1
Low\~limit\~screw\~stop\~x3
  7
normallatin1
 50
0.0
 73
0
 44
1.0
  0
MTEXT
  5
FF
100
AcDbEntity
100
AcDbMText
  8
0
 62
256
370
-1
  6
ByLayer
 10
22.1526849339761505
 20
3.1152213188403959
 30
0.0
 40
2.5
 41
100.0
 71
1
 72
0
  1
Material:\~aluminum
  7
normallatin1
 50
0.0
 73
1
 44
1.0
  0
ENDSEC
  0
SECTION
  2
OBJECTS
  0
DICTIONARY
  5
C
100
AcDbDictionary
280
0
281
1
  3
ACAD_GROUP
350
D
  3
ACAD_LAYOUT
350
1A
  3
ACAD_MLINESTYLE
350
17
  3
ACAD_PLOTSETTINGS
350
19
  3
ACAD_PLOTSTYLENAME
350
E
  3
AcDbVariableDictionary
350
100
  0
DICTIONARY
  5
D
100
AcDbDictionary
280
0
281
1
  0
ACDBDICTIONARYWDFLT
  5
E
100
AcDbDictionary
281
1
  3
Normal
350
F
100
AcDbDictionaryWithDefault
340
F
  0
ACDBPLACEHOLDER
  5
F
  0
DICTIONARY
  5
17
100
AcDbDictionary
280
0
281
1
  3
Standard
350
18
  0
MLINESTYLE
  5
18
100
AcDbMlineStyle
  2
STANDARD
 70
0
  3

 62
256
 51
90.0
 52
90.0
 71
2
 49
0.5
 62
256
  6
BYLAYER
 49
-0.5
 62
256
  6
BYLAYER
  0
DICTIONARY
  5
19
100
AcDbDictionary
280
0
281
1
  0
DICTIONARY
  5
1A
100
AcDbDictionary
281
1
  3
Layout1
350
1E
  3
Layout2
350
26
  3
Model
350
22
  0
LAYOUT
  5
1E
100
AcDbPlotSettings
  1

  2
C:\Program Files\AutoCAD 2002\plotters\DWF ePlot (optimized for plotting).pc3
  4

  6

 40
0.0
 41
0.0
 42
0.0
 43
0.0
 44
0.0
 45
0.0
 46
0.0
 47
0.0
 48
0.0
 49
0.0
140
0.0
141
0.0
142
1.0
143
1.0
 70
688
 72
0
 73
0
 74
5
  7

 75
16
147
1.0
148
0.0
149
0.0
100
AcDbLayout
  1
Layout1
 70
1
 71
1
 10
0.0
 20
0.0
 11
420.0
 21
297.0
 12
0.0
 22
0.0
 32
0.0
 14
100000000000000000000.0
 24
100000000000000000000.0
 34
100000000000000000000.0
 15
-100000000000000000000.0
 25
-100000000000000000000.0
 35
-100000000000000000000.0
146
0.0
 13
0.0
 23
0.0
 33
0.0
 16
1.0
 26
0.0
 36
0.0
 17
0.0
 27
1.0
 37
0.0
 76
0
330
1B
  0
LAYOUT
  5
22
100
AcDbPlotSettings
  1

  2
C:\Program Files\AutoCAD 2002\plotters\DWF ePlot (optimized for plotting).pc3
  4

  6

 40
0.0
 41
0.0
 42
0.0
 43
0.0
 44
0.0
 45
0.0
 46
0.0
 47
0.0
 48
0.0
 49
0.0
140
0.0
141
0.0
142
1.0
143
1.0
 70
1712
 72
0
 73
0
 74
0
  7

 75
0
147
1.0
148
0.0
149
0.0
100
AcDbLayout
  1
Model
 70
1
 71
0
 10
0.0
 20
0.0
 11
12.0
 21
9.0
 12
0.0
 22
0.0
 32
0.0
 14
0.0
 24
0.0
 34
0.0
 15
0.0
 25
0.0
 35
0.0
146
0.0
 13
0.0
 23
0.0
 33
0.0
 16
1.0
 26
0.0
 36
0.0
 17
0.0
 27
1.0
 37
0.0
 76
0
330
1F
  0
LAYOUT
  5
26
100
AcDbPlotSettings
  1

  2
C:\Program Files\AutoCAD 2002\plotters\DWF ePlot (optimized for plotting).pc3
  4

  6

 40
0.0
 41
0.0
 42
0.0
 43
0.0
 44
0.0
 45
0.0
 46
0.0
 47
0.0
 48
0.0
 49
0.0
140
0.0
141
0.0
142
1.0
143
1.0
 70
688
 72
0
 73
0
 74
5
  7

 75
16
147
1.0
148
0.0
149
0.0
100
AcDbLayout
  1
Layout2
 70
1
 71
2
 10
0.0
 20
0.0
 11
12.0
 21
9.0
 12
0.0
 22
0.0
 32
0.0
 14
0.0
 24
0.0
 34
0.0
 15
0.0
 25
0.0
 35
0.0
146
0.0
 13
0.0
 23
0.0
 33
0.0
 16
1.0
 26
0.0
 36
0.0
 17
0.0
 27
1.0
 37
0.0
 76
0
330
23
  0
DICTIONARY
  5
100
100
AcDbDictionary
281
1
  3
DIMASSOC
350
102
  3
HIDETEXT
350
101
  0
DICTIONARYVAR
  5
101
100
DictionaryVariables
280
0
  1
2
  0
DICTIONARYVAR
  5
102
100
DictionaryVariables
280
0
  1
1
  0
ENDSEC
  0
EOF
